<svg width="75" height="75" viewBox="0 0 75 75" fill="none" xmlns="http://www.w3.org/2000/svg">
<path d="M41.6016 8.20312H19.9219C19.9099 8.20312 19.8984 8.20605 19.8867 8.20664C19.845 8.2086 19.8035 8.2128 19.7622 8.21924C19.7253 8.22422 19.6884 8.22861 19.6529 8.23711C19.6178 8.24531 19.5841 8.25762 19.5498 8.26934C19.509 8.28224 19.4689 8.2974 19.4297 8.31475C19.4194 8.31943 19.4083 8.32178 19.3978 8.32676C19.377 8.3373 19.3597 8.35195 19.3397 8.36367C19.3029 8.38426 19.2672 8.40685 19.2328 8.43135C19.2021 8.45361 19.1742 8.47793 19.1464 8.50254C19.1183 8.52773 19.0907 8.55293 19.0649 8.58047C19.0386 8.60889 19.0151 8.63906 18.9917 8.66953C18.9691 8.69883 18.9478 8.729 18.9278 8.76035C18.9085 8.79258 18.8912 8.82539 18.8748 8.85879C18.8574 8.89304 18.8418 8.92814 18.8279 8.96396C18.8147 8.99912 18.8045 9.03516 18.7945 9.07148C18.7845 9.1075 18.7762 9.14397 18.7696 9.18076C18.7631 9.2223 18.7588 9.26416 18.7567 9.30615C18.7556 9.32959 18.75 9.35156 18.75 9.375V48.0469C18.7562 53.484 20.9188 58.6966 24.7635 62.5412C28.6081 66.3859 33.8207 68.5485 39.2578 68.5547C39.5686 68.5547 39.8667 68.4312 40.0865 68.2115C40.3062 67.9917 40.4297 67.6936 40.4297 67.3828V49.2188H41.6016C47.0406 49.2188 52.2568 47.0581 56.1028 43.2122C59.9487 39.3662 62.1094 34.1499 62.1094 28.7109C62.1094 23.2719 59.9487 18.0557 56.1028 14.2097C52.2568 10.3638 47.0406 8.20313 41.6016 8.20312ZM21.0938 14.3394L37.3617 46.875H21.0938V14.3394ZM38.0859 43.0825L21.818 10.5469H38.0859V43.0825ZM21.1359 49.2188H38.0859V66.1737C33.6853 65.8829 29.5402 64.0031 26.4221 60.8841C23.3041 57.7651 21.4255 53.6195 21.1359 49.2188ZM41.6016 46.875H40.4297V10.5469H41.6016C46.419 10.5469 51.0391 12.4606 54.4455 15.867C57.8519 19.2734 59.7656 23.8935 59.7656 28.7109C59.7656 33.5283 57.8519 38.1484 54.4455 41.5549C51.0391 44.9613 46.419 46.875 41.6016 46.875Z" fill="#BFBFC1"/>
</svg>
